<mxfile host="app.diagrams.net" modified="2023-09-04T06:18:27.161Z" agent="Mozilla/5.0 (Windows NT 10.0; Win64; x64) AppleWebKit/537.36 (KHTML, like Gecko) Chrome/116.0.0.0 Safari/537.36" etag="C28UadtrxtZJStBAPFDi" version="21.7.2" type="github">
  <diagram name="Страница — 1" id="SjI3yxzHCVvzGtgD-fbT">
    <mxGraphModel dx="1674" dy="758" grid="1" gridSize="10" guides="1" tooltips="1" connect="1" arrows="1" fold="1" page="1" pageScale="1" pageWidth="827" pageHeight="1169" math="0" shadow="0">
      <root>
        <mxCell id="0" />
        <mxCell id="1" parent="0" />
        <mxCell id="XkjUN3wy2nXAIHbrYmO2-3" style="edgeStyle=orthogonalEdgeStyle;rounded=0;orthogonalLoop=1;jettySize=auto;html=1;exitX=0;exitY=0.5;exitDx=0;exitDy=0;entryX=1;entryY=0.5;entryDx=0;entryDy=0;" edge="1" parent="1" source="XkjUN3wy2nXAIHbrYmO2-1" target="XkjUN3wy2nXAIHbrYmO2-2">
          <mxGeometry relative="1" as="geometry" />
        </mxCell>
        <mxCell id="XkjUN3wy2nXAIHbrYmO2-1" value="App" style="whiteSpace=wrap;html=1;" vertex="1" parent="1">
          <mxGeometry x="354" y="50" width="120" height="60" as="geometry" />
        </mxCell>
        <mxCell id="XkjUN3wy2nXAIHbrYmO2-2" value="token" style="shape=step;perimeter=stepPerimeter;whiteSpace=wrap;html=1;fixedSize=1;" vertex="1" parent="1">
          <mxGeometry x="200" y="40" width="120" height="80" as="geometry" />
        </mxCell>
      </root>
    </mxGraphModel>
  </diagram>
</mxfile>
